<?xml version="1.0" encoding="UTF-8" standalone="no"?>
<!-- Created with Inkscape (http://www.inkscape.org/) -->

<svg
   width="78.461067mm"
   height="99.857933mm"
   viewBox="0 0 78.461067 99.857933"
   version="1.1"
   id="svg5"
   xml:space="preserve"
   inkscape:version="1.2.2 (b0a84865, 2022-12-01)"
   sodipodi:docname="furina-ahoge.svg"
   xmlns:inkscape="http://www.inkscape.org/namespaces/inkscape"
   xmlns:sodipodi="http://sodipodi.sourceforge.net/DTD/sodipodi-0.dtd"
   xmlns="http://www.w3.org/2000/svg"
   xmlns:svg="http://www.w3.org/2000/svg"><sodipodi:namedview
     id="namedview7"
     pagecolor="#ffffff"
     bordercolor="#000000"
     borderopacity="0.25"
     inkscape:showpageshadow="2"
     inkscape:pageopacity="0.0"
     inkscape:pagecheckerboard="0"
     inkscape:deskcolor="#d1d1d1"
     inkscape:document-units="mm"
     showgrid="false"
     inkscape:zoom="0.5946522"
     inkscape:cx="394.34816"
     inkscape:cy="326.24112"
     inkscape:window-width="1920"
     inkscape:window-height="1080"
     inkscape:window-x="1440"
     inkscape:window-y="0"
     inkscape:window-maximized="0"
     inkscape:current-layer="layer1" /><defs
     id="defs2" /><g
     inkscape:label="Layer 1"
     inkscape:groupmode="layer"
     id="layer1"
     transform="translate(-24.520501,-12.209419)"><g
       id="g5320"
       transform="translate(-100.11104,-36.484912)"><path
         style="fill:#ffffff;fill-opacity:1;stroke:#5b6583;stroke-width:8.8;stroke-linecap:round;stroke-linejoin:round;stroke-dasharray:none;stroke-opacity:1;paint-order:markers stroke fill"
         d="m 197.99739,93.659439 c 4.4418,-17.901129 -13.8919,-42.069877 -33.59282,-40.489354 -23.43183,1.879839 -35.46139,18.690788 -35.37256,35.150097 0.14479,26.828548 12.24846,42.764298 63.18119,55.839708 -8.55629,-2.02869 -46.86753,-31.39828 -38.70961,-54.504893 4.95753,-14.041763 29.10872,-21.582069 44.4938,4.004442 z"
         id="path456"
         sodipodi:nodetypes="csscsc" /><path
         id="path1066"
         style="fill:#9cc1e5;fill-opacity:1;stroke:none;stroke-width:1.189;stroke-opacity:1"
         d="m 165.21679,56.025521 c -2.05958,-0.02817 -4.11979,0.199132 -6.15156,0.703833 -18.14601,4.507547 -27.27536,25.607406 -23.58151,40.489518 4.36519,17.586938 25.89622,31.292728 41.14581,37.091278 -13.29913,-11.00875 -28.57405,-29.22322 -23.12572,-44.655157 4.95752,-14.041749 29.10834,-21.582079 44.49341,4.004406 0.5607,-2.259718 0.7577,-4.619495 0.63562,-7.014559 -4.66252,-17.756004 -19.03095,-30.422553 -33.41605,-30.619319 z" /></g></g></svg>
