<?xml version="1.0" encoding="UTF-8" standalone="no"?>
<!-- Created with Inkscape (http://www.inkscape.org/) -->

<svg
   width="512"
   height="512"
   viewBox="0 0 135.46666 135.46667"
   version="1.1"
   id="svg1"
   inkscape:version="1.3.2 (091e20e, 2023-11-25, custom)"
   sodipodi:docname="logo.svg"
   xmlns:inkscape="http://www.inkscape.org/namespaces/inkscape"
   xmlns:sodipodi="http://sodipodi.sourceforge.net/DTD/sodipodi-0.dtd"
   xmlns="http://www.w3.org/2000/svg"
   xmlns:svg="http://www.w3.org/2000/svg">
  <sodipodi:namedview
     id="namedview1"
     pagecolor="#ffffff"
     bordercolor="#000000"
     borderopacity="0.25"
     inkscape:showpageshadow="2"
     inkscape:pageopacity="0.0"
     inkscape:pagecheckerboard="0"
     inkscape:deskcolor="#d1d1d1"
     inkscape:document-units="mm"
     inkscape:zoom="0.72426345"
     inkscape:cx="10.355348"
     inkscape:cy="221.60444"
     inkscape:window-width="1920"
     inkscape:window-height="1009"
     inkscape:window-x="-8"
     inkscape:window-y="-8"
     inkscape:window-maximized="1"
     inkscape:current-layer="layer1" />
  <defs
     id="defs1" />
  <g
     inkscape:label="Layer 1"
     inkscape:groupmode="layer"
     id="layer1">
    <path
       style="font-size:61.472px;font-family:'Hello Almeida';-inkscape-font-specification:'Hello Almeida';fill:#ffffff;stroke-width:0.681313"
       d="m 36.857785,32.982835 q 0,1.045024 -0.430304,1.721216 -0.430304,0.676192 -1.167968,0.676192 -0.245888,0 -0.491776,-0.06147 -0.245888,-0.06147 -0.553248,-0.184416 -1.721216,-0.676192 -3.503904,-0.92208 -1.782688,-0.30736 -3.565376,-0.30736 -3.012128,0 -5.593952,0.737664 0.122944,0.61472 0.122944,0.860608 0,0.553248 -0.122944,1.045024 -0.122944,0.491776 -0.245888,0.983552 -0.983552,3.872736 -1.413856,7.745472 -0.368832,3.872736 -0.491776,7.806944 0,0.122944 0,0.245888 0.06147,0.122944 0.122944,0.368832 1.967104,-0.30736 3.872736,-0.676192 1.967104,-0.368832 3.934208,-0.61472 0.122944,0 0.184416,0 l 0.245888,-0.06147 q 0.122944,0 0.184416,0 1.413856,0 2.520352,0.676192 1.106496,0.61472 1.106496,1.84416 0,1.045024 -0.61472,1.598272 -0.553248,0.491776 -1.598272,0.61472 -2.212992,0.184416 -4.487456,0.491776 -2.274464,0.245888 -4.30304,0.737664 -0.799136,0.184416 -0.983552,0.368832 -0.184416,0.184416 -0.184416,0.676192 v 0.676192 q 0.245888,4.180096 1.106496,8.29872 0.860608,4.057152 1.721216,7.929888 0.184416,0.676192 0.184416,1.167968 0,0.860608 -0.491776,1.598272 -0.491776,0.737664 -1.5368,0.737664 -0.799136,0 -1.22944,-0.676192 -0.430304,-0.676192 -0.676192,-1.352384 -1.045024,-2.950656 -1.659744,-5.962784 -0.61472,-3.012128 -0.983552,-6.1472 -0.122944,-1.413856 -0.245888,-2.827712 -0.122944,-1.413856 -0.430304,-2.827712 -1.22944,0.30736 -2.335936,0.860608 -1.106496,0.553248 -2.15152,1.106496 -0.491776,0.30736 -1.1064961,0.61472 -0.553248,0.30736 -1.290912,0.30736 -1.045024,0 -1.782688,-0.737664 -0.737664,-0.737664 -0.737664,-1.782688 0,-1.352384 0.92208,-2.15152 0.92208,-0.799136 1.84416,-1.22944 2.6432961,-1.106496 5.2251201,-1.84416 0.737664,-0.245888 0.92208,-0.368832 0.245888,-0.184416 0.245888,-0.737664 0,-0.61472 -0.122944,-0.92208 -0.06147,-0.368832 -0.61472,-0.553248 -3.012128,-0.983552 -5.3480641,-2.274464 -2.335936,-1.290912 -4.057152,-3.68832 -1.290912,-1.721216 -1.290912,-3.626848 0,-1.167968 0.430304,-2.274464 0.430304,-1.106496 1.106496,-2.090048 0.676192,-0.983552 1.413856,-1.782688 0.799136,-0.860608 1.5368,-1.475328 3.5653761,-3.196544 8.4831361,-4.6104 4.979232,-1.413856 11.003488,-1.413856 1.475328,0 2.950656,0.122944 1.475328,0.06147 3.0736,0.184416 1.5368,0.122944 2.45888,1.045024 0.92208,0.92208 0.92208,2.335936 z m -26.555904,6.700448 q -0.6761921,0.61472 -1.2909121,1.22944 -0.61472,0.61472 -1.106496,1.413856 -0.368832,0.61472 -0.368832,1.22944 0,0.553248 0.368832,1.106496 1.22944,2.028576 3.0121281,3.196544 1.84416,1.106496 3.99568,2.028576 0,-3.565376 0.430304,-6.884864 0.491776,-3.319488 1.167968,-6.823392 -1.782688,0.799136 -3.319488,1.598272 -1.5368,0.737664 -2.889184,1.905632 z m 43.645088,35.530816 q 0,0.860608 -0.553248,1.475328 -0.491776,0.676192 -1.475328,0.676192 -1.167968,0 -1.905632,-0.983552 -0.737664,-0.983552 -0.983552,-1.84416 -0.799136,-2.950656 -0.860608,-6.45456 0,-3.503904 -0.122944,-7.192224 -0.491776,0.860608 -0.799136,1.598272 -0.245888,0.737664 -0.491776,1.475328 -0.737664,2.212992 -1.598272,4.364512 -0.799136,2.15152 -1.84416,4.30304 -0.06147,0.122944 -0.122944,0.245888 l -0.30736,0.491776 q -0.06147,0.122944 -0.122944,0.245888 -1.106496,1.782688 -2.827712,1.782688 -1.045024,0 -1.84416,-0.61472 -0.737664,-0.61472 -1.290912,-1.5368 -0.491776,-0.92208 -0.799136,-1.967104 -0.245888,-1.106496 -0.368832,-2.028576 -0.184416,-2.028576 -0.184416,-3.934208 0,-3.68832 0.553248,-7.315168 0.61472,-3.626848 1.721216,-7.192224 0.30736,-1.045024 1.045024,-2.090048 0.799136,-1.045024 2.028576,-1.045024 0.860608,0 1.5368,0.676192 0.676192,0.61472 0.676192,1.598272 0,0.491776 -0.184416,1.045024 -1.598272,4.180096 -2.274464,8.421664 -0.61472,4.241568 -0.61472,8.667552 0,0.676192 0.06147,1.413856 0.122944,0.676192 0.430304,1.5368 0.61472,-0.737664 0.92208,-1.413856 0.368832,-0.737664 0.737664,-1.475328 1.659744,-3.442432 3.0736,-7.007808 1.413856,-3.565376 2.889184,-7.06928 0.368832,-0.92208 0.368832,-1.782688 0,-1.290912 0.61472,-2.581824 0.676192,-1.352384 1.905632,-1.352384 1.167968,0 1.84416,1.106496 0.737664,1.106496 0.737664,2.274464 0,0.61472 -0.06147,0.92208 -0.30736,2.643296 -0.61472,5.22512 -0.245888,2.581824 -0.245888,5.53248 0,2.704768 0.245888,5.348064 0.245888,2.581824 0.92208,5.22512 0.122944,0.30736 0.122944,0.61472 0.06147,0.30736 0.06147,0.61472 z M 73.495038,56.895443 q 0,0.676192 0.368832,1.290912 0.368832,0.61472 1.22944,0.61472 0.430304,0 0.737664,-0.184416 0.30736,-0.184416 0.61472,-0.491776 0.430304,-0.368832 0.860608,-0.676192 0.430304,-0.368832 0.860608,-0.676192 0.368832,-0.30736 0.676192,-0.30736 0.245888,0 0.430304,0.184416 0.30736,0.30736 0.30736,0.553248 0,0.06147 -0.06147,0.245888 0,0.122944 -0.245888,0.430304 -1.045024,1.413856 -2.212992,2.643296 -1.106496,1.167968 -2.704768,2.028576 -0.61472,0.368832 -1.290912,0.368832 -0.799136,0 -1.659744,-0.491776 -1.22944,-0.737664 -1.84416,-1.84416 -0.553248,-1.106496 -0.737664,-2.520352 -0.122944,-1.045024 -0.184416,-2.028576 l -0.06147,-1.045024 q -0.122944,-1.167968 -0.368832,-2.335936 0,-0.184416 -0.06147,-0.368832 -0.06147,-0.184416 -0.368832,-0.430304 -0.430304,0.368832 -0.676192,0.860608 -0.245888,0.491776 -0.430304,0.983552 -1.475328,3.503904 -2.274464,7.130752 -0.799136,3.565376 -1.290912,7.315168 -0.06147,0.184416 -0.06147,0.491776 0,0.491776 0.122944,0.983552 l 0.122944,0.61472 q 0.122944,0.491776 0.122944,0.983552 0,1.167968 -0.676192,2.212992 -0.61472,1.106496 -1.598272,1.106496 -0.676192,0 -1.352384,-0.61472 -0.676192,-0.61472 -1.045024,-1.598272 -0.368832,-0.983552 -0.553248,-2.15152 -0.184416,-1.22944 -0.30736,-2.45888 -0.06147,-1.22944 -0.184416,-2.274464 -0.245888,-2.335936 -0.368832,-4.548928 -0.122944,-2.274464 -0.122944,-4.6104 0,-2.335936 0.122944,-4.548928 0.122944,-2.274464 0.368832,-4.6104 0,-1.659744 0.676192,-2.889184 0.737664,-1.22944 2.090048,-1.22944 1.167968,0 1.782688,0.737664 0.676192,0.737664 0.676192,1.84416 0,0.06147 0,0.122944 l -0.06147,0.30736 q 0,0.06147 0,0.122944 -0.30736,2.335936 -0.553248,4.548928 -0.245888,2.15152 -0.245888,4.6104 0,0.860608 0.06147,1.782688 0.06147,0.860608 0.122944,1.782688 0.430304,-0.61472 0.491776,-1.045024 0.06147,-0.491776 0.184416,-0.92208 0.676192,-2.76624 1.782688,-5.593952 1.106496,-2.889184 3.0736,-4.856288 1.045024,-0.92208 2.090048,-0.92208 0.860608,0 1.475328,0.491776 0.61472,0.430304 0.983552,1.106496 0.430304,0.676192 0.61472,1.5368 0.245888,0.860608 0.30736,1.721216 0.122944,1.106496 0.122944,2.212992 v 1.475328 q 0.06147,1.106496 0.122944,2.212992 z M 82.46993,31.630451 q 1.352384,0 2.028576,1.22944 0.737664,1.22944 0.737664,2.643296 -0.06147,2.090048 -0.491776,4.118624 -0.368832,1.967104 -0.983552,3.934208 -0.553248,1.721216 -2.45888,1.721216 -0.676192,0 -1.167968,-0.430304 -0.491776,-0.491776 -0.860608,-1.167968 -0.30736,-0.676192 -0.491776,-1.475328 -0.122944,-0.799136 -0.122944,-1.5368 0,-0.860608 0.06147,-2.397408 0.122944,-1.5368 0.491776,-3.012128 0.368832,-1.475328 1.106496,-2.520352 0.799136,-1.106496 2.15152,-1.106496 z m -0.799136,15.798304 q 1.167968,0 1.967104,1.045024 0.860608,1.045024 0.860608,2.45888 0,0.368832 -0.06147,0.799136 0,0.368832 -0.06147,0.799136 -0.553248,3.626848 -0.983552,7.192224 -0.430304,3.503904 -0.430304,7.192224 0,0.30736 0,0.799136 0,0.491776 0.06147,0.983552 0.122944,0.430304 0.245888,0.799136 0.184416,0.30736 0.491776,0.30736 0.491776,0 1.045024,-0.676192 0.553248,-0.737664 0.799136,-1.106496 1.475328,-2.335936 2.335936,-4.856288 0.860608,-2.581824 1.905632,-5.163648 0.184416,-0.491776 0.430304,-0.983552 0.30736,-0.553248 0.860608,-0.553248 0.430304,0 0.553248,0.245888 0.184416,0.184416 0.184416,0.491776 0,0.30736 -0.06147,0.491776 0,0.122944 -0.06147,0.30736 l -0.122944,0.430304 q 0,0.122944 -0.06147,0.30736 l -0.553248,2.15152 q -1.598272,6.393088 -4.30304,12.2944 -0.245888,0.553248 -0.61472,1.22944 -0.30736,0.676192 -0.799136,1.22944 -0.430304,0.553248 -1.045024,0.92208 -0.553248,0.430304 -1.290912,0.430304 -0.983552,0 -2.028576,-0.860608 -1.721216,-1.413856 -2.45888,-4.118624 -0.676192,-2.76624 -0.676192,-5.655424 v -4.979232 q 0,-2.45888 0.122944,-4.91776 0.122944,-2.45888 0.368832,-4.91776 0.122944,-1.475328 0.860608,-2.76624 0.799136,-1.352384 2.520352,-1.352384 z m 24.035496,-3.319488 q 1.10649,0 1.78269,0.553248 0.73766,0.553248 1.10649,1.413856 0.43031,0.860608 0.55325,1.967104 0.18442,1.045024 0.18442,2.15152 v 0.92208 q -0.18442,3.811264 -0.43031,7.561056 -0.18441,3.749792 -0.18441,7.561056 0,1.967104 0,3.99568 0.0615,1.967104 0.30736,3.934208 0,0.430304 0,0.676192 0.0615,0.30736 0.0615,0.491776 0,0.245888 -0.0615,0.553248 0,1.045024 -0.73767,1.598272 -0.67619,0.61472 -1.5368,0.61472 -0.79913,0 -1.35238,-0.430304 -0.55325,-0.368832 -0.92208,-1.045024 -0.30736,-0.61472 -0.49178,-1.413856 -0.18441,-0.737664 -0.24589,-1.475328 -0.12294,-2.581824 -0.24588,-5.102176 -0.12295,-2.520352 -0.12295,-5.102176 0,-1.22944 0,-2.397408 0.0615,-1.22944 0.12295,-2.45888 0,-1.659744 0,-3.319488 0.0615,-1.721216 0.18441,-3.38096 0,-0.245888 -0.12294,-0.430304 l -0.12295,-0.30736 q -0.12294,-0.184416 -0.12294,-0.430304 -0.49178,0.491776 -0.79914,1.045024 -0.30736,0.491776 -0.61472,1.045024 -1.72121,3.012128 -2.88918,6.208672 -1.106496,3.196544 -1.967104,6.516032 -0.430304,1.659744 -0.92208,3.319488 -0.430304,1.659744 -0.676192,3.38096 -0.122944,0.92208 -0.799136,1.413856 -0.61472,0.491776 -1.290912,0.491776 -0.860608,0 -1.413856,-0.61472 -0.491776,-0.553248 -0.799136,-1.413856 -0.30736,-0.860608 -0.430304,-1.84416 -0.122944,-0.983552 -0.245888,-1.721216 -0.245888,-1.5368 -0.368832,-3.012128 -0.06147,-1.475328 -0.122944,-3.012128 0,-2.335936 -0.245888,-4.671872 -0.184416,-2.335936 -0.184416,-4.671872 0,-1.045024 0.184416,-2.15152 0.184416,-1.106496 0.61472,-1.967104 0.430304,-0.92208 1.045024,-1.475328 0.676192,-0.61472 1.598272,-0.61472 1.352384,0 2.090048,0.983552 0.737664,0.983552 0.737664,2.274464 v 0.368832 l -0.92208,9.774048 q 0,0.368832 -0.06147,0.676192 0,0.245888 0,0.368832 0,0.30736 0.06147,0.61472 0.368832,-0.553248 0.491776,-1.106496 0.122944,-0.553248 0.30736,-1.106496 0.860608,-2.950656 1.967104,-5.655424 1.167968,-2.704768 2.704764,-5.348064 0.61472,-1.045024 1.29092,-1.967104 0.73766,-0.983552 1.65974,-1.782688 0.49178,-0.491776 1.1065,-0.737664 0.61472,-0.30736 1.29091,-0.30736 z m 18.62607,17.888352 q -0.36883,1.106496 -1.04502,3.0736 -0.67619,1.905632 -1.65975,3.872736 -0.98355,1.905632 -2.21299,3.319488 -1.22944,1.413856 -2.70477,1.413856 -1.04502,0 -1.84416,-0.61472 -0.73766,-0.61472 -1.29091,-1.5368 -0.55325,-0.92208 -0.86061,-1.967104 -0.30736,-1.106496 -0.36883,-2.028576 -0.0615,-0.799136 -0.12294,-1.598272 0,-0.799136 0,-1.598272 0,-0.983552 0.12294,-2.581824 0.12295,-1.659744 0.36883,-3.503904 0.30736,-1.905632 0.79914,-3.811264 0.49178,-1.967104 1.22944,-3.503904 0.79914,-1.5368 1.90563,-2.520352 1.1065,-0.983552 2.58183,-0.983552 1.5368,0 2.76624,1.167968 1.22944,1.106496 1.90563,2.643296 0.67619,1.475328 1.35238,3.0736 0.36883,-0.06147 0.49178,-0.245888 0.18441,-0.245888 0.36883,-0.430304 0.55325,-0.491776 1.1065,-0.491776 0.67619,0 1.10649,0.553248 0.43031,0.553248 0.61472,1.352384 0.24589,0.799136 0.30736,1.598272 0.0615,0.737664 0.0615,1.22944 l 0.0615,2.090048 q 0.0615,3.319488 0.24588,6.577504 0.24589,3.196544 1.22944,6.331616 0.12295,0.491776 0.24589,1.045024 0.12295,0.553248 0.12295,1.106496 0,1.22944 -0.6762,1.905632 -0.67619,0.737664 -1.65974,0.737664 -0.61472,0 -1.47533,-0.430304 -0.92208,-0.491776 -1.41385,-1.475328 -0.49178,-0.92208 -0.73767,-2.090048 -0.24589,-1.167968 -0.36883,-2.45888 -0.0615,-1.290912 -0.18442,-2.520352 -0.12294,-1.659744 -0.18441,-3.319488 -0.0615,-1.659744 -0.18442,-3.38096 z m -7.43811,6.638976 q 0,0.430304 0.18442,0.553248 0.18441,0.06147 0.30736,0.06147 0.18441,0 0.4303,-0.245888 0.73766,-0.799136 1.47533,-2.212992 0.73766,-1.413856 1.41385,-2.950656 0.6762,-1.598272 1.22944,-3.135072 0.55325,-1.5368 0.86061,-2.520352 0.12295,-0.30736 0.24589,-0.61472 0.12294,-0.368832 0.12294,-0.737664 0,-0.430304 -0.30736,-1.106496 -0.30736,-0.676192 -0.73766,-1.290912 -0.4303,-0.676192 -0.92208,-1.106496 -0.49178,-0.491776 -0.86061,-0.491776 -0.36883,0 -0.73766,0.30736 -0.30736,0.30736 -0.55325,0.799136 -0.18442,0.430304 -0.36883,0.92208 -0.12295,0.430304 -0.24589,0.737664 -0.73766,2.45888 -1.16797,4.979232 -0.36883,2.520352 -0.36883,5.102176 z"
       id="text1"
       aria-label="Furina" />
    <path
       style="font-size:25.896px;font-family:'Hello Almeida';-inkscape-font-specification:'Hello Almeida';fill:#ffffff;stroke-width:0.287014"
       d="M 11.901098,106.67554 Q 24.545629,103.74201 25.152566,93.221756 H 9.979129 v -2.225438 h 15.37575 l 1.416187,-0.303469 1.112719,1.011563 Q 27.47916,105.15819 13.72191,108.90097 Z m 38.844,-7.283253 q 0,7.586723 -7.080938,10.924873 l -2.023125,-1.71965 q 6.676313,-3.03469 6.777469,-9.306379 V 89.175506 h 2.124281 q 1.011563,0.202312 0.202313,0.80925 z M 40.326004,101.61772 H 37.99941 V 90.187068 h 2.225438 q 1.011562,0.101156 0.101156,0.80925 z M 59.03991,99.999224 v -2.225437 h 22.557844 v 2.225437 z m 38.338223,-5.158968 h 9.407527 v 2.225437 h -9.306371 v 1.820813 q 0,7.485564 -6.474,11.329504 l -2.124281,-1.6185 q 6.271687,-3.237 6.271687,-9.711004 V 97.065693 H 85.138226 v -2.225437 h 9.913313 v -6.069375 h 2.023125 q 1.112719,0.101156 0.303469,0.80925 z"
       id="text2"
       aria-label="フリーナ" />
  </g>
</svg>
